<svg xmlns="http://www.w3.org/2000/svg" width="20" height="18" viewBox="0 0 20 18">
    <path fill="#DAE1EA" fill-rule="evenodd" d="M17.5 0H5a2.5 2.5 0 0 0-2.5 2.5V5h1.25V2.5c0-.69.56-1.25 1.25-1.25h12.5c.69 0 1.25.56 1.25 1.25V15c0 .69-.56 1.25-1.25 1.25H5c-.69 0-1.25-.56-1.25-1.25v-2.5H2.5V15A2.5 2.5 0 0 0 5 17.5h12.5A2.5 2.5 0 0 0 20 15V2.5A2.5 2.5 0 0 0 17.5 0zm-6.66 12.652a.625.625 0 0 0 .884.884l4.312-4.312a.62.62 0 0 0 .176-.474.618.618 0 0 0-.176-.473l-4.312-4.312a.625.625 0 1 0-.885.884l3.277 3.276H.625a.625.625 0 1 0 0 1.25h13.491l-3.277 3.277z"/>
</svg>
