<?xml version="1.0" encoding="iso-8859-1"?>
<!-- Generator: Adobe Illustrator 19.0.0, SVG Export Plug-In . SVG Version: 6.00 Build 0)  -->
<svg version="1.1" id="Capa_1" xmlns="http://www.w3.org/2000/svg" xmlns:xlink="http://www.w3.org/1999/xlink" x="0px" y="0px"
	 viewBox="0 0 512 512" style="enable-background:new 0 0 512 512;" xml:space="preserve">
<circle style="fill:#ffee58;" cx="256" cy="256" r="256"/>
<path style="fill:#c9bc1f;" d="M511.886,263.41L335.371,86.895l-53.037-20.297L207.667,77l-16.895,24.037l123.459,123.459
	L177.119,435.73l76.236,76.236c0.882,0.009,1.76,0.033,2.645,0.033C394.906,512,507.963,401.367,511.886,263.41z"/>
<rect x="177.12" y="166.26" style="fill:#333333;" width="157.76" height="269.46"/>
<rect x="256" y="166.26" style="fill:#1A1A1A;" width="78.881" height="269.46"/>
<rect x="193.27" y="181.93" style="fill:#35CCFF;" width="125.47" height="214.31"/>
<rect x="256" y="181.93" style="fill:#00BAFF;" width="62.734" height="214.31"/>
<circle style="fill:#1A1A1A;" cx="256" cy="414.35" r="10.588"/>
<path d="M256,403.757v21.176c5.848,0,10.588-4.74,10.588-10.588S261.848,403.757,256,403.757z"/>
<path style="fill:#FFFFFF;" d="M295.041,313.032c0-17.052-12.64-31.202-29.041-33.587v-28.251h19.041v-20H266v-10.115h-20v10.474
	c-16.401,2.385-29.041,16.535-29.041,33.587s12.64,31.202,29.041,33.587v28.251h-19.041v20H246v10.115h20v-10.468
	c7.206-1.037,13.858-4.35,19.098-9.59C291.51,330.624,295.041,322.1,295.041,313.032z M236.959,265.14
	c0-5.962,3.767-11.047,9.041-13.038v26.076C240.726,276.187,236.959,271.102,236.959,265.14z M270.957,322.894
	c-1.429,1.429-3.119,2.496-4.956,3.185v-26.085c5.273,1.991,9.041,7.076,9.041,13.038
	C275.041,316.757,273.59,320.26,270.957,322.894z"/>
<path style="fill:#E0E0E0;" d="M295.041,313.032c0-17.052-12.64-31.202-29.041-33.587v-28.251h19.041v-20H266v-10.115h-10v136.013
	h10v-10.468c7.206-1.037,13.858-4.35,19.098-9.59C291.51,330.624,295.041,322.1,295.041,313.032z M270.957,322.894
	c-1.429,1.429-3.119,2.496-4.956,3.185v-26.085c5.273,1.991,9.041,7.076,9.041,13.038
	C275.041,316.757,273.59,320.26,270.957,322.894z"/>
<path style="fill:#6EBA3B;" d="M291.778,130.487c-9.557-9.557-22.263-14.82-35.778-14.82s-26.222,5.263-35.778,14.82l-14.143-14.142
	C219.414,103.01,237.143,95.667,256,95.667s36.586,7.344,49.921,20.678L291.778,130.487z"/>
<path style="fill:#488057;" d="M256,95.667v20c13.516,0,26.222,5.263,35.778,14.82l14.143-14.142
	C292.586,103.01,274.857,95.667,256,95.667z"/>
<path style="fill:#6EBA3B;" d="M247.105,157.371l-14.143-14.142c12.703-12.703,33.372-12.703,46.074,0l-14.142,14.142
	C259.99,152.465,252.01,152.466,247.105,157.371z"/>
<path style="fill:#488057;" d="M279.037,143.228c-6.351-6.351-14.694-9.527-23.037-9.527v19.99c3.221,0,6.442,1.226,8.895,3.679
	L279.037,143.228z"/>
<path style="fill:#6EBA3B;" d="M190.772,101.037l-14.143-14.142c43.766-43.765,114.976-43.765,158.741,0l-14.143,14.142
	C285.262,65.07,226.738,65.07,190.772,101.037z"/>
<path style="fill:#488057;" d="M256,54.071v19.991c23.622,0,47.245,8.992,65.228,26.975l14.143-14.142
	C313.488,65.012,284.744,54.071,256,54.071z"/>
<g>
</g>
<g>
</g>
<g>
</g>
<g>
</g>
<g>
</g>
<g>
</g>
<g>
</g>
<g>
</g>
<g>
</g>
<g>
</g>
<g>
</g>
<g>
</g>
<g>
</g>
<g>
</g>
<g>
</g>
</svg>
