<?xml version="1.0" encoding="iso-8859-1"?>
<!-- Generator: Adobe Illustrator 19.0.0, SVG Export Plug-In . SVG Version: 6.00 Build 0)  -->
<svg version="1.1" id="Layer_1" xmlns="http://www.w3.org/2000/svg" xmlns:xlink="http://www.w3.org/1999/xlink" x="0px" y="0px"
	 viewBox="0 0 512 512" style="enable-background:new 0 0 512 512;" xml:space="preserve">
<path style="fill:#42a5f5;" d="M416.944,130.016l92.494,89.766C491.842,95.552,385.088,0,256,0C114.615,0,0,114.615,0,256
	c0,139.851,112.147,253.493,251.414,255.942l-155.95-152.71L416.944,130.016z"/>
<path style="fill:#4CBCD6;" d="M509.438,219.782l-92.494-89.766L95.464,359.232l155.95,152.71c1.527,0.027,3.053,0.058,4.586,0.058
	c141.385,0,256-114.615,256-256C512,243.704,511.114,231.616,509.438,219.782z"/>
<g>
	<polygon style="fill:#FFFFFF;" points="362.736,347.888 362.736,441.272 244.448,347.888 	"/>
	<path style="fill:#FFFFFF;" d="M404.76,363.872H107.24c-9.552,0-17.376-7.816-17.376-17.376V142.368
		c0-9.552,7.816-17.376,17.376-17.376h297.512c9.552,0,17.376,7.816,17.376,17.376v204.136
		C422.128,356.056,414.312,363.872,404.76,363.872z"/>
</g>
<circle style="fill:#333333;" cx="163.58" cy="196.82" r="36.864"/>
<g>
	<path style="fill:#FFFFFF;" d="M146.96,201.944c0,9.176,7.44,16.616,16.616,16.616s16.616-7.44,16.616-16.616H146.96z"/>
	<circle style="fill:#FFFFFF;" cx="150.43" cy="186.33" r="6.416"/>
	<circle style="fill:#FFFFFF;" cx="176.71" cy="186.33" r="6.416"/>
</g>
<g>
	<rect x="226.52" y="173.14" style="fill:#CCCBCA;" width="141.57" height="6"/>
	<rect x="226.52" y="193.82" style="fill:#CCCBCA;" width="141.57" height="6"/>
	<rect x="226.52" y="214.5" style="fill:#CCCBCA;" width="99.1" height="6"/>
</g>
<circle style="fill:#333333;" cx="348.42" cy="296.38" r="36.864"/>
<g>
	<path style="fill:#FFFFFF;" d="M365.04,301.504c0,9.176-7.44,16.616-16.616,16.616s-16.616-7.44-16.616-16.616H365.04z"/>
	<circle style="fill:#FFFFFF;" cx="361.57" cy="285.89" r="6.416"/>
	<circle style="fill:#FFFFFF;" cx="335.29" cy="285.89" r="6.416"/>
</g>
<g>
	<rect x="143.9" y="272.7" style="fill:#CCCBCA;" width="141.57" height="6"/>
	<rect x="143.9" y="293.38" style="fill:#CCCBCA;" width="141.57" height="6"/>
	<rect x="186.38" y="314.05" style="fill:#CCCBCA;" width="99.1" height="6"/>
</g>
<g>
</g>
<g>
</g>
<g>
</g>
<g>
</g>
<g>
</g>
<g>
</g>
<g>
</g>
<g>
</g>
<g>
</g>
<g>
</g>
<g>
</g>
<g>
</g>
<g>
</g>
<g>
</g>
<g>
</g>
</svg>
