<svg height="480pt" viewBox="0 0 480 480.0002" width="480pt" xmlns="http://www.w3.org/2000/svg" xmlns:xlink="http://www.w3.org/1999/xlink"><linearGradient id="a"><stop offset="0" stop-color="#e93e3a"/><stop offset=".35" stop-color="#ed683c"/><stop offset=".7" stop-color="#f3903f"/><stop offset="1" stop-color="#fdc70c"/></linearGradient><linearGradient id="b" gradientUnits="userSpaceOnUse" x1="240.0001" x2="240.0001" xlink:href="#a" y1="486.7281" y2="-12.9119"/><linearGradient id="c" gradientUnits="userSpaceOnUse" x1="132.51839" x2="132.51839" xlink:href="#a" y1="486.727392" y2="-12.912608"/><linearGradient id="d" gradientUnits="userSpaceOnUse" x1="88.0001" x2="88.0001" xlink:href="#a" y1="486.7281" y2="-12.9119"/><linearGradient id="e" gradientUnits="userSpaceOnUse" x1="132.518064" x2="132.518064" xlink:href="#a" y1="486.726604" y2="-12.913396"/><linearGradient id="f" gradientUnits="userSpaceOnUse" x1="347.477276" x2="347.477276" xlink:href="#a" y1="486.72693" y2="-12.91307"/><linearGradient id="g" gradientUnits="userSpaceOnUse" x1="392.0001" x2="392.0001" xlink:href="#a" y1="486.7281" y2="-12.9119"/><linearGradient id="h" gradientUnits="userSpaceOnUse" x1="347.477602" x2="347.477602" xlink:href="#a" y1="486.727718" y2="-12.912282"/><g fill="url(#b)"><path d="m472.800781 192.039062-56.800781-5.640624c-3.453125-11.371094-8.007812-22.378907-13.601562-32.871094l36.144531-44.183594c2.609375-3.179688 2.378906-7.820312-.527344-10.726562l-56.589844-56.609376c-2.910156-2.90625-7.550781-3.136718-10.730469-.527343l-44.183593 36.121093c-10.488281-5.59375-21.5-10.148437-32.871094-13.601562l-5.679687-56.800781c-.410157-4.085938-3.851563-7.199219-7.960938-7.199219h-80c-4.125-.0195312-7.585938 3.097656-8 7.199219l-5.601562 56.800781c-11.371094 3.453125-22.378907 8.007812-32.871094 13.601562l-44.222656-36.121093c-3.179688-2.609375-7.820313-2.378907-10.730469.527343l-56.566407 56.566407c-2.90625 2.910156-3.136718 7.550781-.527343 10.730469l36.121093 44.183593c-5.59375 10.503907-10.148437 21.523438-13.601562 32.910157l-56.800781 5.683593c-4.070313.40625-7.1796878 3.824219-7.199219 7.917969v80c0 4.109375 3.113281 7.550781 7.199219 7.960938l56.800781 5.679687c3.453125 11.371094 8.007812 22.382813 13.601562 32.871094l-36.121093 44.183593c-2.609375 3.179688-2.378907 7.820313.527343 10.730469l56.566407 56.566407c2.910156 2.90625 7.550781 3.136718 10.730469.527343l44.183593-36.121093c10.503907 5.59375 21.523438 10.148437 32.910157 13.601562l5.683593 56.800781c.410157 4.101563 3.875 7.21875 8 7.199219h79.917969c4.109375 0 7.550781-3.113281 7.960938-7.199219l5.679687-56.800781c11.371094-3.453125 22.382813-8.007812 32.871094-13.601562l44.183593 36.144531c3.179688 2.609375 7.820313 2.378906 10.730469-.527344l56.566407-56.566406c2.90625-2.910157 3.136718-7.550781.527343-10.730469l-36.121093-44.207031c5.59375-10.488281 10.148437-21.5 13.601562-32.871094l56.800781-5.679687c4.085938-.410157 7.199219-3.851563 7.199219-7.960938v-80c0-4.109375-3.113281-7.550781-7.199219-7.960938zm-8.800781 80.761719-54.976562 5.496094c-3.296876.332031-6.050782 2.664063-6.917969 5.863281-3.738281 13.734375-9.214844 26.933594-16.296875 39.28125-1.652344 2.878906-1.351563 6.480469.75 9.046875l34.992187 42.710938-46.351562 46.351562-42.75-34.992187c-2.570313-2.101563-6.167969-2.402344-9.050781-.75-12.34375 7.082031-25.542969 12.558594-39.277344 16.296875-3.199219.867187-5.53125 3.621093-5.863282 6.917969l-5.457031 54.976562h-65.519531l-5.496094-54.976562c-.332031-3.296876-2.664062-6.050782-5.863281-6.917969-13.734375-3.738281-26.9375-9.214844-39.28125-16.296875-2.878906-1.652344-6.480469-1.351563-9.046875.75l-42.792969 34.992187-46.351562-46.351562 34.992187-42.773438c2.101563-2.570312 2.402344-6.167969.75-9.050781-7.082031-12.34375-12.558594-25.542969-16.296875-39.277344-.867187-3.203125-3.621093-5.535156-6.917969-5.867187l-54.976562-5.429688v-65.519531l54.976562-5.496094c3.296876-.332031 6.050782-2.664062 6.917969-5.863281 3.738281-13.734375 9.214844-26.9375 16.296875-39.28125 1.652344-2.878906 1.351563-6.480469-.75-9.046875l-34.992187-42.792969 46.351562-46.351562 42.773438 34.992187c2.570312 2.101563 6.171875 2.402344 9.050781.75 12.34375-7.082031 25.542969-12.558594 39.277344-16.296875 3.203125-.867187 5.535156-3.621093 5.867187-6.917969l5.46875-54.976562h65.5625l5.496094 54.976562c.332031 3.296876 2.664063 6.050782 5.863281 6.917969 13.734375 3.738281 26.933594 9.214844 39.28125 16.296875 2.878906 1.652344 6.480469 1.351563 9.046875-.75l42.710938-34.992187 46.351562 46.351562-34.992187 42.75c-2.101563 2.570313-2.402344 6.167969-.75 9.050781 7.082031 12.34375 12.558594 25.542969 16.296875 39.277344.867187 3.199219 3.621093 5.535156 6.917969 5.863282l54.976562 5.496093zm0 0"/><path d="m240 112c-70.691406 0-128 57.308594-128 128s57.308594 128 128 128 128-57.308594 128-128c-.082031-70.65625-57.34375-127.917969-128-128zm0 240c-61.855469 0-112-50.144531-112-112s50.144531-112 112-112 112 50.144531 112 112c-.066406 61.828125-50.171875 111.933594-112 112zm0 0"/><path d="m264 184h-16v-16h-16v16h-16c-13.253906 0-24 10.746094-24 24v16c0 13.253906 10.746094 24 24 24h48c4.417969 0 8 3.582031 8 8v16c0 4.417969-3.582031 8-8 8h-48c-4.417969 0-8-3.582031-8-8v-8h-16v8c0 13.253906 10.746094 24 24 24h16v16h16v-16h16c13.253906 0 24-10.746094 24-24v-16c0-13.253906-10.746094-24-24-24h-48c-4.417969 0-8-3.582031-8-8v-16c0-4.417969 3.582031-8 8-8h48c4.417969 0 8 3.582031 8 8v8h16v-8c0-13.253906-10.746094-24-24-24zm0 0"/><path d="m232 80h16v16h-16zm0 0"/></g><path d="m121.207031 132.519531 11.3125-11.3125 11.3125 11.3125-11.3125 11.3125zm0 0" fill="url(#c)"/><path d="m80 232h16v16h-16zm0 0" fill="url(#d)"/><path d="m121.203125 347.480469 11.316406-11.3125 11.3125 11.3125-11.3125 11.3125zm0 0" fill="url(#e)"/><path d="m232 384h16v16h-16zm0 0" fill="url(#b)"/><path d="m336.164062 347.480469 11.3125-11.3125 11.316407 11.3125-11.316407 11.3125zm0 0" fill="url(#f)"/><path d="m384 232h16v16h-16zm0 0" fill="url(#g)"/><path d="m336.164062 132.519531 11.316407-11.3125 11.3125 11.3125-11.3125 11.316407zm0 0" fill="url(#h)"/></svg>