<?xml version="1.0" encoding="iso-8859-1"?>
<!-- Generator: Adobe Illustrator 19.0.0, SVG Export Plug-In . SVG Version: 6.00 Build 0)  -->
<svg xmlns="http://www.w3.org/2000/svg" xmlns:xlink="http://www.w3.org/1999/xlink" version="1.1" id="Layer_1" x="0px" y="0px" viewBox="0 0 489.5 489.5" style="enable-background:new 0 0 489.5 489.5;" xml:space="preserve" width="512px" height="512px">
<g>
	<g>
		<path d="M109.65,332.5v-134c-9.1,2.2-18.6,3.5-28.5,3.5c-9.8,0-19.3-1.3-28.5-3.5v134c-30.7,11.5-52.6,41.1-52.6,75.8    c0,44.8,36.3,81.1,81.1,81.1c44.8,0,81.1-36.3,81.1-81.1C162.25,373.6,140.35,344,109.65,332.5z M81.15,440.5    c-17.8,0-32.2-14.4-32.2-32.2c-0.1-17.8,14.4-32.2,32.2-32.2c17.8,0,32.2,14.4,32.2,32.2S98.95,440.5,81.15,440.5z" fill="#6fa6de"/>
	</g>
</g>
<g>
	<g>
		<path d="M408.35,0c-44.8,0-81.1,36.3-81.1,81.1c0,34.7,21.9,64.3,52.6,75.8v134c9.1-2.2,18.6-3.5,28.5-3.5    c9.9,0,19.3,1.3,28.5,3.5v-134c30.7-11.5,52.6-41.1,52.6-75.8C489.45,36.3,453.15,0,408.35,0z M408.35,113.3    c-17.8,0-32.2-14.4-32.2-32.2c0-17.8,14.4-32.2,32.2-32.2c17.8,0,32.2,14.4,32.2,32.2C440.65,98.9,426.15,113.3,408.35,113.3z" fill="#6fa6de"/>
	</g>
</g>
<g>
	<g>
		<path d="M290.95,52.6h-134C145.45,21.9,115.85,0,81.15,0c-44.8,0-81.1,36.3-81.1,81.1c0,44.8,36.3,81.1,81.1,81.1    c34.7,0,64.3-21.9,75.8-52.6h134c-2.2-9.1-3.5-18.6-3.5-28.5C287.45,71.3,288.75,61.8,290.95,52.6z M81.15,113.2    c-17.8,0-32.2-14.4-32.2-32.2c-0.1-17.7,14.4-32.2,32.2-32.2c17.8,0,32.2,14.4,32.2,32.2S98.95,113.2,81.15,113.2z" fill="#6fa6de"/>
	</g>
</g>
<g>
	<g>
		<path d="M408.35,327.3c-34.7,0-64.3,21.9-75.8,52.6h-134c2.2,9.1,3.5,18.6,3.5,28.5c0,9.8-1.3,19.3-3.5,28.5h134    c11.5,30.7,41.1,52.6,75.8,52.6c44.8,0,81.1-36.3,81.1-81.1C489.45,363.6,453.15,327.3,408.35,327.3z M408.35,440.6    c-17.8,0-32.2-14.4-32.2-32.2c0-17.8,14.4-32.2,32.2-32.2c17.8,0,32.2,14.4,32.2,32.2C440.65,426.1,426.15,440.6,408.35,440.6z" fill="#6fa6de"/>
	</g>
</g>
<g>
</g>
<g>
</g>
<g>
</g>
<g>
</g>
<g>
</g>
<g>
</g>
<g>
</g>
<g>
</g>
<g>
</g>
<g>
</g>
<g>
</g>
<g>
</g>
<g>
</g>
<g>
</g>
<g>
</g>
</svg>
