<?xml version="1.0" encoding="iso-8859-1"?>
<!-- Generator: Adobe Illustrator 19.0.0, SVG Export Plug-In . SVG Version: 6.00 Build 0)  -->
<svg version="1.1" id="Layer_1" xmlns="http://www.w3.org/2000/svg" xmlns:xlink="http://www.w3.org/1999/xlink" x="0px" y="0px"
	 viewBox="0 0 512 512" style="enable-background:new 0 0 512 512;" xml:space="preserve">
<path style="fill:#37b6f7;" d="M426.064,124.864l81.017,81.017C483.78,88.495,380.231,0,256,0C114.615,0,0,114.615,0,256
	c0,132.955,101.359,242.225,231.018,254.784L119.52,399.28L426.064,124.864z"/>
<g>
	<path style="fill:#0086c4;" d="M507.081,205.881l-81.017-81.017L119.52,399.28l111.498,111.504C239.239,511.581,247.57,512,256,512
		c141.385,0,256-114.615,256-256C512,238.846,510.299,222.091,507.081,205.881z"/>
	<polygon style="fill:#0086c4;" points="74.056,343.976 131.856,401.776 131.856,333.76 	"/>
</g>
<g>
	<path style="fill:#FFFFFF;" d="M415.408,268.232H235.216c-9.008,0-16.384-7.368-16.384-16.384V137.184
		c0-9.008,7.368-16.384,16.384-16.384h180.192c9.008,0,16.384,7.368,16.384,16.384v114.672
		C431.792,260.864,424.416,268.232,415.408,268.232z"/>
	<polygon style="fill:#FFFFFF;" points="382.648,317.376 382.648,251.856 300.736,251.856 	"/>
</g>
<g>
	<path style="fill:#333333;" d="M86.76,350.144h180.192c9.008,0,16.384-7.368,16.384-16.384V219.088
		c0-9.008-7.368-16.384-16.384-16.384H86.76c-9.008,0-16.384,7.368-16.384,16.384V333.76
		C70.376,342.768,77.752,350.144,86.76,350.144z"/>
	<polygon style="fill:#333333;" points="119.52,399.28 119.52,333.76 201.424,333.76 	"/>
</g>
<g>
	<rect x="168.66" y="251.86" style="fill:#FFFFFF;" width="16.384" height="16.384"/>
	<rect x="135.9" y="251.86" style="fill:#FFFFFF;" width="16.384" height="16.384"/>
	<rect x="201.42" y="251.86" style="fill:#FFFFFF;" width="16.384" height="16.384"/>
	<rect x="234.19" y="251.86" style="fill:#FFFFFF;" width="16.384" height="16.384"/>
	<rect x="168.66" y="284.62" style="fill:#FFFFFF;" width="16.384" height="16.384"/>
	<rect x="135.9" y="284.62" style="fill:#FFFFFF;" width="16.384" height="16.384"/>
</g>
<g>
	<rect x="317.12" y="169.94" style="fill:#78D0E8;" width="16.384" height="16.384"/>
	<rect x="284.36" y="169.94" style="fill:#78D0E8;" width="16.384" height="16.384"/>
	<rect x="251.59" y="169.94" style="fill:#78D0E8;" width="16.384" height="16.384"/>
	<rect x="349.88" y="169.94" style="fill:#78D0E8;" width="16.384" height="16.384"/>
	<rect x="382.65" y="169.94" style="fill:#78D0E8;" width="16.384" height="16.384"/>
	<rect x="317.12" y="202.71" style="fill:#78D0E8;" width="16.384" height="16.384"/>
	<rect x="349.88" y="202.71" style="fill:#78D0E8;" width="16.384" height="16.384"/>
	<rect x="382.65" y="202.71" style="fill:#78D0E8;" width="16.384" height="16.384"/>
</g>
<g>
	<rect x="103.14" y="284.62" style="fill:#FFFFFF;" width="16.384" height="16.384"/>
	<rect x="103.14" y="251.86" style="fill:#FFFFFF;" width="16.384" height="16.384"/>
</g>
<g>
</g>
<g>
</g>
<g>
</g>
<g>
</g>
<g>
</g>
<g>
</g>
<g>
</g>
<g>
</g>
<g>
</g>
<g>
</g>
<g>
</g>
<g>
</g>
<g>
</g>
<g>
</g>
<g>
</g>
</svg>
