<svg xmlns="http://www.w3.org/2000/svg" width="19" height="20" viewBox="0 0 19 20">
    <path fill="#ffffff" fill-rule="evenodd" d="M17.421 11.29h-3.11a.622.622 0 0 0-.623.621v2.49c0 .343.279.621.622.621h3.111v3.111a.622.622 0 0 1-.622.623H1.867a.622.622 0 0 1-.623-.623V6.312H16.8c.344 0 .622.278.622.622v4.355zm0 1.866v.622h-2.488v-1.244h2.488v.622zM16.177 1.334v3.733H4.044l12.133-3.733zm1.244 3.733V.712c0-.344-.146-.534-.466-.66-.247-.098-.486-.04-.778.038L0 5.067v13.689C0 19.443.557 20 1.244 20h16.177c.687 0 1.245-.557 1.245-1.244V6.312c0-.687-.558-1.245-1.245-1.245z"/>
</svg>
