<svg xmlns="http://www.w3.org/2000/svg" width="20" height="20" viewBox="0 0 20 20">
    <path fill="#DAE1EA" fill-rule="evenodd" d="M18.75 17.5c0 .69-.56 1.25-1.25 1.25h-15c-.69 0-1.25-.56-1.25-1.25v-15c0-.69.56-1.25 1.25-1.25h15c.69 0 1.25.56 1.25 1.25v15zM17.5 0h-15A2.5 2.5 0 0 0 0 2.5v15A2.5 2.5 0 0 0 2.5 20h15a2.5 2.5 0 0 0 2.5-2.5v-15A2.5 2.5 0 0 0 17.5 0zm-5 12.125a1.5 1.5 0 1 1 0-3 1.5 1.5 0 0 1 0 3zM16.25 10h-1.339A2.493 2.493 0 0 0 12.5 8.125 2.493 2.493 0 0 0 10.089 10H3.75a.625.625 0 0 0 0 1.25h6.339a2.493 2.493 0 0 0 2.411 1.875 2.493 2.493 0 0 0 2.411-1.875h1.339a.625.625 0 1 0 0-1.25zM6.875 7.125a1.5 1.5 0 1 1 0-3 1.5 1.5 0 0 1 0 3zM16.25 5H9.286a2.493 2.493 0 0 0-2.411-1.875A2.493 2.493 0 0 0 4.464 5H3.75a.625.625 0 0 0 0 1.25h.714a2.493 2.493 0 0 0 2.411 1.875A2.493 2.493 0 0 0 9.286 6.25h6.964a.625.625 0 1 0 0-1.25zM6.875 17.125a1.5 1.5 0 1 1 0-3 1.5 1.5 0 0 1 0 3zM16.25 15H9.286a2.493 2.493 0 0 0-2.411-1.875A2.493 2.493 0 0 0 4.464 15H3.75a.625.625 0 1 0 0 1.25h.714a2.493 2.493 0 0 0 2.411 1.875 2.493 2.493 0 0 0 2.411-1.875h6.964a.625.625 0 1 0 0-1.25z"/>
</svg>
