<svg xmlns="http://www.w3.org/2000/svg" width="20" height="20" viewBox="0 0 20 20">
    <path fill="#DAE1EA" fill-rule="evenodd" d="M18.787 13.62c.409-.52.605-1.078.58-1.653-.025-.634-.309-1.13-.542-1.434.27-.675.375-1.737-.53-2.562-.662-.604-1.787-.875-3.345-.8a13.07 13.07 0 0 0-2.05.262h-.004c-.208.038-.43.084-.654.134-.017-.267.029-.93.52-2.421.584-1.775.55-3.133-.108-4.042C11.963.15 10.858.075 10.534.075c-.313 0-.6.13-.805.367-.462.537-.408 1.529-.35 1.987-.55 1.475-2.091 5.092-3.396 6.096-.025.017-.045.038-.066.058A4.472 4.472 0 0 0 5.1 9.808a1.721 1.721 0 0 0-.825-.208H1.733C.775 9.6 0 10.38 0 11.333v6.771c0 .959.78 1.734 1.733 1.734h2.542c.37 0 .717-.117 1-.317l.98.117c.15.02 2.816.358 5.553.304.496.037.963.058 1.396.058.746 0 1.396-.058 1.938-.175 1.275-.27 2.146-.812 2.587-1.608a2.55 2.55 0 0 0 .284-1.596c.829-.75.974-1.58.945-2.163a2.818 2.818 0 0 0-.17-.837zM1.733 18.714a.609.609 0 0 1-.608-.609V11.33a.61.61 0 0 1 .608-.608h2.542a.61.61 0 0 1 .608.608v6.77a.61.61 0 0 1-.608.61H1.733v.004zm15.988-5.58a.56.56 0 0 0-.075.68c0 .004.17.295.191.695.03.546-.233 1.03-.783 1.442a.567.567 0 0 0-.191.642c0 .004.179.554-.113 1.075-.28.5-.9.858-1.842 1.058-.754.162-1.779.192-3.037.092h-.058c-2.68.058-5.388-.292-5.417-.296h-.004l-.421-.05c.025-.117.037-.242.037-.367V11.33c0-.179-.029-.354-.079-.516.075-.28.284-.9.775-1.43 1.871-1.483 3.7-6.487 3.78-6.704a.529.529 0 0 0 .024-.279c-.07-.467-.046-1.037.055-1.208.22.004.816.066 1.174.562.425.588.409 1.638-.05 3.03-.7 2.12-.758 3.237-.204 3.729a.908.908 0 0 0 .909.162c.254-.058.496-.108.725-.146l.054-.012c1.28-.28 3.57-.45 4.366.275.675.616.196 1.433.142 1.52a.557.557 0 0 0 .1.726c.004.004.442.416.463.97.016.371-.159.75-.521 1.125z"/>
</svg>
