<svg xmlns="http://www.w3.org/2000/svg" width="18" height="20" viewBox="0 0 18 20">
    <path fill="#DAE1EA" fill-rule="evenodd" d="M13.125 8.75h-8.75a.625.625 0 1 0 0 1.25h8.75a.624.624 0 1 0 0-1.25zm3.125 8.75c0 .69-.56 1.25-1.25 1.25H2.5c-.69 0-1.25-.56-1.25-1.25V5c0-.69.56-1.25 1.25-1.25h1.875v2.5h8.75v-2.5H15c.69 0 1.25.56 1.25 1.25v12.5zM5.625 2.5h1.39c0-.69.776-1.25 1.735-1.25.959 0 1.736.56 1.736 1.25h1.389V5h-6.25V2.5zM15 2.5h-1.875V1.25h-1.683C10.9.506 9.904 0 8.75 0 7.596 0 6.6.506 6.058 1.25H4.375V2.5H2.5A2.5 2.5 0 0 0 0 5v12.5A2.5 2.5 0 0 0 2.5 20H15a2.5 2.5 0 0 0 2.5-2.5V5A2.5 2.5 0 0 0 15 2.5zM13.125 15h-8.75a.625.625 0 1 0 0 1.25h8.75a.624.624 0 1 0 0-1.25zm0-3.125h-8.75a.625.625 0 1 0 0 1.25h8.75a.624.624 0 1 0 0-1.25z"/>
</svg>
