<svg xmlns="http://www.w3.org/2000/svg" width="20" height="20" viewBox="0 0 20 20">
    <path fill="#DAE1EA" fill-rule="evenodd" d="M18.571 5.714a1.43 1.43 0 0 1-1.428 1.429h-2.857a1.43 1.43 0 0 1-1.429-1.429V2.857c0-.788.64-1.428 1.429-1.428h2.857c.788 0 1.428.64 1.428 1.428v2.857zM17.143 0h-2.857a2.857 2.857 0 0 0-2.857 2.857v2.857a2.857 2.857 0 0 0 2.857 2.857h2.857A2.857 2.857 0 0 0 20 5.714V2.857A2.857 2.857 0 0 0 17.143 0zm1.428 17.143a1.43 1.43 0 0 1-1.428 1.428h-2.857a1.43 1.43 0 0 1-1.429-1.428v-2.857c0-.789.64-1.429 1.429-1.429h2.857c.788 0 1.428.64 1.428 1.429v2.857zm-1.428-5.714h-2.857a2.857 2.857 0 0 0-2.857 2.857v2.857A2.857 2.857 0 0 0 14.286 20h2.857A2.857 2.857 0 0 0 20 17.143v-2.857a2.857 2.857 0 0 0-2.857-2.857zm-10-5.715a1.43 1.43 0 0 1-1.429 1.429H2.857A1.43 1.43 0 0 1 1.43 5.714V2.857c0-.788.64-1.428 1.428-1.428h2.857c.789 0 1.429.64 1.429 1.428v2.857zM5.714 0H2.857A2.857 2.857 0 0 0 0 2.857v2.857a2.857 2.857 0 0 0 2.857 2.857h2.857a2.857 2.857 0 0 0 2.857-2.857V2.857A2.857 2.857 0 0 0 5.714 0zm1.429 17.143a1.43 1.43 0 0 1-1.429 1.428H2.857a1.43 1.43 0 0 1-1.428-1.428v-2.857c0-.789.64-1.429 1.428-1.429h2.857c.789 0 1.429.64 1.429 1.429v2.857zm-1.429-5.714H2.857A2.857 2.857 0 0 0 0 14.286v2.857A2.857 2.857 0 0 0 2.857 20h2.857a2.857 2.857 0 0 0 2.857-2.857v-2.857a2.857 2.857 0 0 0-2.857-2.857z"/>
</svg>
