<?xml version="1.0" encoding="iso-8859-1"?>
<!-- Generator: Adobe Illustrator 19.0.0, SVG Export Plug-In . SVG Version: 6.00 Build 0)  -->
<svg version="1.1" id="Capa_1" xmlns="http://www.w3.org/2000/svg" xmlns:xlink="http://www.w3.org/1999/xlink" x="0px" y="0px"
	 viewBox="0 0 409.6 409.6" style="enable-background:new 0 0 409.6 409.6;" xml:space="preserve">
<circle style="fill:#ab47bc;" cx="204.8" cy="204.8" r="204.8"/>
<path style="opacity:0.1;enable-background:new    ;" d="M408.271,227.877l-127.68-127.68c-0.163-0.176-0.331-0.342-0.506-0.506
	l-0.002-0.002h0c-1.858-1.74-4.333-2.828-7.078-2.828h-8.501l-4.702-4.702c-0.823-1.529-2.071-2.777-3.6-3.6l0,0v0
	c-1.243-0.669-2.641-1.085-4.147-1.085H139.841c-4.864,0-8.832,3.968-8.832,8.832v44.544c0,3.117,1.608,5.828,4.023,7.398
	l12.188,12.188l-6.74,13.267l119.192,119.192l-13.322,14.258L138.793,199.594c-5.898-6.164-14.192-10.02-23.4-10.02
	c-17.877,0-32.341,14.464-32.341,32.341c0,8.993,3.665,17.117,9.578,22.976l10.77,10.77c-23.379,5.358-41.862,26.002-46.802,52.313
	c-0.569,3.039,0.018,5.971,1.322,8.396l-0.03,0.032l0.116,0.116c1.086,1.955,2.635,3.556,4.533,4.533l78.309,78.309
	c20.128,6.613,41.611,10.239,63.952,10.239C310.102,409.6,396.8,330.115,408.271,227.877z"/>
<circle style="fill:#fffd61;" cx="294.195" cy="221.909" r="32.358"/>
<path style="fill:#ffca28;" d="M342.734,322.133c6.618,0,11.643-6.872,10.267-14.179c-5.776-30.673-29.91-53.683-58.805-53.683
	c-28.895,0-53.029,23.01-58.805,53.683c-1.376,7.307,3.649,14.179,10.267,14.179H342.734z"/>
<path style="fill:#fffd61;" d="M235.39,307.955c5.776-30.673,29.91-53.683,58.805-53.683v67.862h-48.539
	C239.039,322.133,234.014,315.262,235.39,307.955z"/>
<path style="fill:#ffca28;" d="M294.195,254.272c17.87,0,32.357-14.487,32.357-32.357c0-17.87-14.487-32.357-32.357-32.357V254.272z
	"/>
<circle style="fill:#29b6f6;" cx="115.413" cy="221.909" r="32.358"/>
<path style="fill:#73e8ff;" d="M163.943,322.133c6.618,0,11.643-6.872,10.267-14.179c-5.776-30.673-29.91-53.683-58.805-53.683
	s-53.029,23.01-58.805,53.683c-1.376,7.307,3.649,14.179,10.267,14.179H163.943z"/>
<path style="fill:#29b6f6;" d="M56.6,307.955c5.776-30.673,29.91-53.683,58.805-53.683v67.862H66.866
	C60.248,322.133,55.224,315.262,56.6,307.955z"/>
<path style="fill:#73e8ff;" d="M115.405,254.272c17.87,0,32.357-14.487,32.357-32.357c0-17.87-14.487-32.357-32.357-32.357V254.272z
	"/>
<path style="fill:#EBF0F3;" d="M272.986,96.875h-86.807c-5.76,0-10.43,4.67-10.43,10.43v42.742c0,5.76,4.67,10.43,10.43,10.43
	h49.821l40.009,27.771l-14.121-27.771h11.099c5.76,0,10.43-4.67,10.43-10.43v-42.742C283.416,101.544,278.746,96.875,272.986,96.875
	z"/>
<path style="fill:#ffee58;" d="M252.04,87.467H139.845c-4.882,0-8.84,3.958-8.84,8.84v44.552c0,4.882,3.958,8.84,8.84,8.84h12.831
	l-12.201,23.995l34.57-23.995h76.996c4.883,0,8.84-3.958,8.84-8.84V96.307C260.88,91.425,256.922,87.467,252.04,87.467z"/>
<g>
	<rect x="145.877" y="94.677" style="fill:#c9bc1f;" width="100.113" height="11.499"/>
	<rect x="145.877" y="112.832" style="fill:#c9bc1f;" width="100.113" height="11.499"/>
	<rect x="145.877" y="131.063" style="fill:#c9bc1f;" width="100.113" height="11.499"/>
</g>
<g>
</g>
<g>
</g>
<g>
</g>
<g>
</g>
<g>
</g>
<g>
</g>
<g>
</g>
<g>
</g>
<g>
</g>
<g>
</g>
<g>
</g>
<g>
</g>
<g>
</g>
<g>
</g>
<g>
</g>
</svg>
