<?xml version="1.0" encoding="iso-8859-1"?>
<!-- Generator: Adobe Illustrator 19.0.0, SVG Export Plug-In . SVG Version: 6.00 Build 0)  -->
<svg version="1.1" id="Layer_1" xmlns="http://www.w3.org/2000/svg" xmlns:xlink="http://www.w3.org/1999/xlink" x="0px" y="0px"
	 viewBox="0 0 512 512" style="enable-background:new 0 0 512 512;" xml:space="preserve">
<circle style="fill:#9c27b0;" cx="256" cy="256" r="256"/>
<path style="fill:#025e90;" d="M509.807,289.578L360.081,139.852L204.295,278.423l-87.069,104.284L246.319,511.8
	c3.215,0.119,6.439,0.2,9.681,0.2C386.003,512,493.361,415.094,509.807,289.578z"/>
<rect x="117.226" y="209.23" style="fill:#324A5E;" width="277.549" height="173.459"/>
<rect x="256.293" y="209.23" style="fill:#2B3B4E;" width="138.481" height="173.459"/>
<polygon style="fill:#31BAFD;" points="117.226,209.239 256,313.32 394.774,209.239 256,105.158 "/>
<polygon style="fill:#2B9ED8;" points="256.288,105.374 256.288,313.104 394.774,209.239 "/>
<polygon style="fill:#FFFFFF;" points="151.919,139.852 151.919,235.26 256,313.32 360.081,235.26 360.081,139.852 "/>
<polygon style="fill:#D0D1D3;" points="360.081,139.852 256.288,139.852 256.288,313.104 360.081,235.26 "/>
<g>
	<rect x="181.872" y="181.441" style="fill:#FD8469;" width="148.256" height="6.896"/>
	<rect x="181.872" y="199.111" style="fill:#FD8469;" width="148.256" height="6.896"/>
</g>
<g>
	<rect x="256.293" y="181.441" style="fill:#FC6F58;" width="73.84" height="6.896"/>
	<rect x="256.293" y="199.111" style="fill:#FC6F58;" width="73.84" height="6.896"/>
</g>
<g>
</g>
<g>
</g>
<g>
</g>
<g>
</g>
<g>
</g>
<g>
</g>
<g>
</g>
<g>
</g>
<g>
</g>
<g>
</g>
<g>
</g>
<g>
</g>
<g>
</g>
<g>
</g>
<g>
</g>
</svg>
