<?xml version="1.0" encoding="iso-8859-1"?>
<!-- Generator: Adobe Illustrator 19.0.0, SVG Export Plug-In . SVG Version: 6.00 Build 0)  -->
<svg version="1.1" id="Layer_1" xmlns="http://www.w3.org/2000/svg" xmlns:xlink="http://www.w3.org/1999/xlink" x="0px" y="0px"
	 viewBox="0 0 512 512" style="enable-background:new 0 0 512 512;" xml:space="preserve">
<circle style="fill:#00bcd4;" cx="256" cy="256" r="256"/>
<path style="fill:#007ea7;" d="M507.27,305.133L372.707,170.57l-20.98,55.312l-72.059-72.67l-38.06,77.098l-57.439-57.439
	l-37.874,92.493l47.028,47.028l-136.433,0.496L256,512C380.578,512,484.354,423.009,507.27,305.133z"/>
<path style="fill:#FFFFFF;" d="M146.217,234.901l-21.356,7.211c-13.291,4.487-22.257,17.087-22.257,31.279v19.965h57.72v-58.454
	L146.217,234.901L146.217,234.901z"/>
<path style="fill:#D0D1D3;" d="M218.905,273.389c0-14.191-8.966-26.791-22.257-31.279l-21.356-7.211h-14.969v58.454h58.582
	L218.905,273.389L218.905,273.389z"/>
<polygon style="fill:#FED8B2;" points="175.48,234.901 160.754,249.627 146.029,234.901 146.029,220.176 175.48,220.176 "/>
<polygon style="fill:#EFC095;" points="160.323,220.176 160.323,249.196 160.754,249.627 175.48,234.901 175.48,220.176 "/>
<path style="fill:#F4E3C3;" d="M131.305,190.726c0-16.265,13.184-29.449,29.449-29.449s29.449,13.184,29.449,29.449
	s-13.184,44.175-29.449,44.175S131.305,206.991,131.305,190.726z"/>
<path style="fill:#FED8B2;" d="M160.754,161.277c-0.145,0-0.286,0.019-0.431,0.022v73.58c0.143,0.005,0.286,0.022,0.431,0.022
	c16.265,0,29.449-27.91,29.449-44.175S177.019,161.277,160.754,161.277z"/>
<path style="fill:#59595B;" d="M190.204,190.726c0-16.265-13.184-29.449-29.449-29.449s-29.449,13.184-29.449,29.449
	c0,6.491,2.105,14.832,5.661,22.519c-0.834-4.424-0.61-8.947-0.174-12.36c18.694-1.467,36.733-10.212,36.733-10.212
	s2.282,4.196,10.847,7.93c0.607,3.484,1.207,9.149,0.164,14.658C188.097,205.571,190.204,197.222,190.204,190.726z"/>
<path style="fill:#272525;" d="M190.204,190.726c0-16.265-13.184-29.449-29.449-29.449c-0.145,0-0.286,0.019-0.431,0.022v34.552
	c7.866-2.594,13.202-5.177,13.202-5.177s2.282,4.196,10.847,7.93c0.607,3.484,1.207,9.149,0.164,14.658
	C188.097,205.571,190.204,197.222,190.204,190.726z"/>
<polygon style="fill:#02B2B2;" points="154.562,292.84 158.691,254.528 162.818,254.528 166.946,292.84 "/>
<polygon style="fill:#00938F;" points="162.818,254.528 160.323,254.528 160.323,292.84 166.946,292.84 "/>
<path style="fill:#425E70;" d="M139.293,237.146l-14.895,4.965c-13.464,4.487-22.544,17.087-22.544,31.279v19.965h58.468v-1.631
	L139.293,237.146z"/>
<path style="fill:#2B3B4E;" d="M219.653,273.389c0-14.191-9.082-26.791-22.544-31.279l-14.895-4.965l-21.461,55.694l-0.431-1.115
	v1.631h59.33V273.389z"/>
<g>
	<polygon style="fill:#324A5E;" points="182.215,237.146 186.296,254.528 178.555,258.398 186.296,267.298 160.754,292.84 	"/>
	<polygon style="fill:#324A5E;" points="139.292,237.146 135.213,254.528 142.951,258.398 135.213,267.298 160.754,292.84 	"/>
</g>
<polygon style="fill:#38C6D9;" points="168.881,249.69 163.462,262.461 158.044,262.461 152.628,249.69 "/>
<polygon style="fill:#02B2B2;" points="168.881,249.69 160.323,249.69 160.323,262.461 163.462,262.461 "/>
<polygon style="fill:#E9EFF4;" points="173.525,254.528 182.215,237.146 175.48,234.901 160.754,249.627 "/>
<g>
	<polygon style="fill:#FFFFFF;" points="147.984,254.528 139.293,237.146 146.029,234.901 160.754,249.627 	"/>
	<path style="fill:#FFFFFF;" d="M336.708,234.901l-21.356,7.211c-13.291,4.487-22.257,17.087-22.257,31.279v19.965h58.008v-58.454
		L336.708,234.901L336.708,234.901z"/>
</g>
<path style="fill:#D0D1D3;" d="M409.397,273.389c0-14.191-8.966-26.791-22.257-31.279l-21.356-7.211h-14.681v58.454h58.294V273.389z
	"/>
<polygon style="fill:#FED8B2;" points="365.971,234.901 351.246,249.627 336.52,234.901 336.52,220.176 365.971,220.176 "/>
<polygon style="fill:#EFC095;" points="351.103,220.176 351.103,249.484 351.246,249.627 365.971,234.901 365.971,220.176 "/>
<path style="fill:#F4E3C3;" d="M321.796,190.726c0-16.265,13.184-29.449,29.449-29.449s29.449,13.184,29.449,29.449
	s-13.184,44.175-29.449,44.175S321.796,206.991,321.796,190.726z"/>
<path style="fill:#FED8B2;" d="M351.246,161.277c-0.048,0-0.095,0.007-0.143,0.007v73.609c0.048,0,0.095,0.007,0.143,0.007
	c16.265,0,29.449-27.91,29.449-44.175C380.695,174.461,367.511,161.277,351.246,161.277z"/>
<path style="fill:#59595B;" d="M380.695,190.726c0-16.265-13.184-29.449-29.449-29.449s-29.449,13.184-29.449,29.449
	c0,6.491,2.105,14.832,5.661,22.519c-0.834-4.424-0.61-8.947-0.174-12.36c18.694-1.467,36.733-10.212,36.733-10.212
	s2.282,4.196,10.847,7.93c0.607,3.484,1.207,9.149,0.164,14.658C378.589,205.571,380.695,197.222,380.695,190.726z"/>
<path style="fill:#272525;" d="M380.695,190.726c0-16.265-13.184-29.449-29.449-29.449c-0.048,0-0.095,0.007-0.143,0.007v34.473
	c7.709-2.562,12.914-5.084,12.914-5.084s2.282,4.196,10.847,7.93c0.607,3.484,1.207,9.149,0.164,14.658
	C378.589,205.571,380.695,197.222,380.695,190.726z"/>
<polygon style="fill:#02B2B2;" points="345.054,292.84 349.182,254.528 353.309,254.528 357.438,292.84 "/>
<polygon style="fill:#00938F;" points="353.309,254.528 351.103,254.528 351.103,292.84 357.438,292.84 "/>
<path style="fill:#425E70;" d="M329.785,237.146l-14.895,4.965c-13.464,4.487-22.543,17.087-22.543,31.279v19.965h58.756v-0.884
	L329.785,237.146z"/>
<path style="fill:#2B3B4E;" d="M410.145,273.389c0-14.191-9.082-26.791-22.544-31.279l-14.895-4.965l-21.461,55.694l-0.143-0.371
	v0.884h59.042L410.145,273.389L410.145,273.389z"/>
<g>
	<polygon style="fill:#324A5E;" points="372.707,237.146 376.787,254.528 369.047,258.398 376.787,267.298 351.246,292.84 	"/>
	<polygon style="fill:#324A5E;" points="329.783,237.146 325.704,254.528 333.443,258.398 325.704,267.298 351.246,292.84 	"/>
</g>
<polygon style="fill:#38C6D9;" points="359.372,249.69 353.954,262.461 348.536,262.461 343.119,249.69 "/>
<polygon style="fill:#02B2B2;" points="359.372,249.69 351.103,249.69 351.103,262.461 353.954,262.461 "/>
<polygon style="fill:#E9EFF4;" points="364.016,254.528 372.707,237.146 365.971,234.901 351.246,249.627 "/>
<polygon style="fill:#FFFFFF;" points="338.475,254.528 329.785,237.146 336.52,234.901 351.246,249.627 "/>
<path style="fill:#E9EFF4;" d="M239.626,226.968l-24.052,8.189c-14.97,5.096-25.067,19.406-25.067,35.523v22.675h65.205v-66.386
	H239.626z"/>
<path style="fill:#CFDBE6;" d="M321.491,270.681c0-16.117-10.097-30.425-25.067-35.523l-24.052-8.189h-16.66v66.386h65.779V270.681z
	"/>
<polygon style="fill:#FED8B2;" points="272.724,226.968 256,243.691 239.276,226.968 239.276,210.246 272.724,210.246 "/>
<polygon style="fill:#EFC095;" points="255.714,210.246 255.714,243.405 256,243.691 272.724,226.968 272.724,210.246 "/>
<path style="fill:#F4E3C3;" d="M222.553,176.799c0-18.472,14.974-33.447,33.447-33.447s33.447,14.974,33.447,33.447
	S274.473,226.968,256,226.968C237.527,226.968,222.553,195.27,222.553,176.799z"/>
<path style="fill:#FED8B2;" d="M256,143.353c-0.097,0-0.19,0.014-0.286,0.014v83.587c0.097,0.002,0.191,0.016,0.286,0.016
	c18.472,0,33.447-31.697,33.447-50.169S274.472,143.353,256,143.353z"/>
<path style="fill:#9A4F03;" d="M282.822,185.744c0.69,3.956,1.37,10.39,0.186,16.648c4.044-8.733,6.437-18.217,6.437-25.591
	c0-18.472-14.974-33.447-33.447-33.447s-33.447,14.974-33.447,33.447c0,7.371,2.389,16.846,6.43,25.574
	c-0.946-5.025-0.693-10.162-0.197-14.038C228.786,188.337,248.179,162.099,282.822,185.744z"/>
<path style="fill:#804000;" d="M289.447,176.799c0-18.472-14.974-33.447-33.447-33.447c-0.097,0-0.19,0.014-0.286,0.014v32.523
	c7.57,0.134,16.637,2.707,27.108,9.854c0.69,3.956,1.37,10.39,0.186,16.648C287.053,193.658,289.447,184.175,289.447,176.799z"/>
<polygon style="fill:#EAA22F;" points="248.968,292.771 253.655,249.258 258.345,249.258 263.032,292.771 "/>
<polygon style="fill:#E09112;" points="258.345,249.258 255.714,249.258 255.714,292.771 263.032,292.771 "/>
<path style="fill:#05BEA6;" d="M231.626,229.519l-16.915,5.639c-15.289,5.096-25.603,19.406-25.603,35.523v22.675h66.607v-1.327
	L231.626,229.519z"/>
<path style="fill:#2C9984;" d="M322.893,270.681c0-16.117-10.312-30.427-25.603-35.523l-16.917-5.639L256,292.771l-0.286-0.743
	v1.327h67.179L322.893,270.681L322.893,270.681z"/>
<polygon style="fill:#177764;" points="280.374,229.519 285.008,249.258 276.218,253.654 285.008,263.763 256,292.771 "/>
<polygon style="fill:#2C9984;" points="231.626,229.519 226.992,249.258 235.782,253.654 226.992,263.763 256,292.771 "/>
<polygon style="fill:#FFC61B;" points="265.23,243.764 259.075,258.269 252.923,258.269 246.77,243.764 "/>
<polygon style="fill:#EAA22F;" points="265.23,243.764 255.714,243.764 255.714,258.269 259.075,258.269 "/>
<polygon style="fill:#E9EFF4;" points="270.503,249.258 280.374,229.519 272.724,226.968 256,243.691 "/>
<polygon style="fill:#FFFFFF;" points="241.497,249.258 231.626,229.519 239.276,226.968 256,243.691 "/>
<path style="fill:#FFC61B;" d="M440.385,341.333H113.778v-56.889h326.608c8.132,0,14.726,6.592,14.726,14.726v27.439
	C455.111,334.741,448.519,341.333,440.385,341.333z"/>
<path style="fill:#EAA22F;" d="M113.778,312.889v28.444h326.608c8.132,0,14.726-6.592,14.726-14.726v-13.719H113.778z"/>
<rect x="113.778" y="284.444" style="fill:#31BAFD;" width="302.839" height="56.889"/>
<rect x="113.778" y="312.889" style="fill:#2B9ED8;" width="302.839" height="28.444"/>
<polygon style="fill:#FEE187;" points="113.778,284.444 56.889,312.889 113.778,341.333 "/>
<polygon style="fill:#FFC61B;" points="56.889,312.889 113.778,341.333 113.778,312.889 "/>
<polygon style="fill:#59595B;" points="56.889,312.889 83.466,326.177 83.466,299.601 "/>
<polygon style="fill:#272525;" points="56.889,312.889 83.466,326.177 83.466,312.889 "/>
<g>
</g>
<g>
</g>
<g>
</g>
<g>
</g>
<g>
</g>
<g>
</g>
<g>
</g>
<g>
</g>
<g>
</g>
<g>
</g>
<g>
</g>
<g>
</g>
<g>
</g>
<g>
</g>
<g>
</g>
</svg>
