<?xml version="1.0" encoding="iso-8859-1"?>
<!-- Generator: Adobe Illustrator 19.0.0, SVG Export Plug-In . SVG Version: 6.00 Build 0)  -->
<svg version="1.1" id="Layer_1" xmlns="http://www.w3.org/2000/svg" xmlns:xlink="http://www.w3.org/1999/xlink" x="0px" y="0px"
	 viewBox="0 0 512 512" style="enable-background:new 0 0 512 512;" xml:space="preserve">
<circle style="fill:#273B7A;" cx="256" cy="256" r="256"/>
<path style="fill:#121149;" d="M511.612,270.029L363.891,122.308L226.938,287.934l-84.716,110.289L256,512
	C392.676,512,504.329,404.889,511.612,270.029z"/>
<path style="fill:#FFC61B;" d="M170.667,398.222h174.69c13.488,0,24.423-10.935,24.423-24.421V138.199
	c0-13.488-10.935-24.421-24.423-24.421h-174.69V398.222z"/>
<path style="fill:#EAA22F;" d="M170.667,255.426v142.796h174.689c13.488,0,24.423-10.935,24.423-24.423V255.424H170.667V255.426z"/>
<polygon style="fill:#D35933;" points="328.407,212.468 298.801,198.37 269.193,212.468 269.193,113.778 328.407,113.778 "/>
<polygon style="fill:#B54324;" points="297.95,113.778 297.95,198.775 298.801,198.37 328.407,212.468 328.407,113.778 "/>
<rect x="142.222" y="113.778" style="fill:#FF5419;" width="56.889" height="284.444"/>
<rect x="142.222" y="255.431" style="fill:#C92F00;" width="56.889" height="142.791"/>
<g>
	<rect x="227.556" y="297.374" style="fill:#FFEDB5;" width="113.778" height="10.343"/>
	<rect x="227.556" y="318.061" style="fill:#FFEDB5;" width="113.778" height="10.343"/>
</g>
<g>
</g>
<g>
</g>
<g>
</g>
<g>
</g>
<g>
</g>
<g>
</g>
<g>
</g>
<g>
</g>
<g>
</g>
<g>
</g>
<g>
</g>
<g>
</g>
<g>
</g>
<g>
</g>
<g>
</g>
</svg>
