<?xml version="1.0" encoding="iso-8859-1"?>
<!-- Generator: Adobe Illustrator 19.0.0, SVG Export Plug-In . SVG Version: 6.00 Build 0)  -->
<svg version="1.1" id="Layer_1" xmlns="http://www.w3.org/2000/svg" xmlns:xlink="http://www.w3.org/1999/xlink" x="0px" y="0px"
	 viewBox="0 0 512 512" style="enable-background:new 0 0 512 512;" xml:space="preserve">
<circle style="fill:#386895;" cx="256" cy="256" r="256"/>
<path style="fill:#273B7A;" d="M283.026,510.581c106.305-11.155,193.221-87.366,220.238-188.099L267.712,86.931l-15.734,55.291
	l-67.232,190.923l-42.524,36.633L283.026,510.581z"/>
<circle style="fill:#FFC61B;" cx="256" cy="99.556" r="17.239"/>
<path style="fill:#EAA22F;" d="M256,82.316c-0.193,0-0.381,0.022-0.574,0.029v34.42c0.193,0.007,0.381,0.029,0.574,0.029
	c9.521,0,17.239-7.718,17.239-17.239S265.521,82.316,256,82.316z"/>
<circle style="fill:#FFC61B;" cx="256" cy="376.673" r="31.892"/>
<path style="fill:#EAA22F;" d="M256,344.781c-0.193,0-0.381,0.026-0.574,0.029v63.726c0.193,0.003,0.381,0.029,0.574,0.029
	c17.613,0,31.892-14.279,31.892-31.892C287.892,359.06,273.613,344.781,256,344.781z"/>
<path style="fill:#FEE187;" d="M142.222,341.333L142.222,341.333c15.71,0,28.444-12.734,28.444-28.444V200.516
	c0-46.795,37.086-85.944,83.875-86.726c47.795-0.798,86.792,37.707,86.792,85.321v113.778c0,15.71,12.734,28.444,28.444,28.444l0,0
	v28.444H142.222V341.333z"/>
<path style="fill:#FFC61B;" d="M369.778,341.333c-15.71,0-28.444-12.734-28.444-28.444V199.111
	c0-47.318-38.517-85.623-85.907-85.313v255.979h114.352V341.333z"/>
<g>
</g>
<g>
</g>
<g>
</g>
<g>
</g>
<g>
</g>
<g>
</g>
<g>
</g>
<g>
</g>
<g>
</g>
<g>
</g>
<g>
</g>
<g>
</g>
<g>
</g>
<g>
</g>
<g>
</g>
</svg>
