<?xml version="1.0" encoding="iso-8859-1"?>
<!-- Generator: Adobe Illustrator 19.0.0, SVG Export Plug-In . SVG Version: 6.00 Build 0)  -->
<svg version="1.1" id="Layer_1" xmlns="http://www.w3.org/2000/svg" xmlns:xlink="http://www.w3.org/1999/xlink" x="0px" y="0px"
	 viewBox="0 0 512 512" style="enable-background:new 0 0 512 512;" xml:space="preserve">
<circle style="fill:#E1EFFA;" cx="256" cy="256" r="256"/>
<path style="fill:#BCD4E8;" d="M510.495,283.622L348.933,122.079c-0.22-0.22-0.404-0.443-0.625-0.66
	c-0.218-0.218-0.435-0.407-0.655-0.625c-1.61-1.28-3.584-1.938-5.56-1.938H169.876c-2.232,0-4.498,0.842-6.216,2.563
	c-1.72,1.718-2.563,3.988-2.563,6.216v256.735c0,1.938,0.66,3.948,1.938,5.563c0.22,0.218,0.404,0.435,0.625,0.653
	c0.105,0.113,0.218,0.218,0.325,0.294l119.619,119.613C402.934,497.695,497.692,402.936,510.495,283.622z"/>
<path style="fill:#0684BA;" d="M350.907,203.354H161.091v181.002c0,2.255,0.858,4.503,2.586,6.216
	c1.713,1.715,3.965,2.573,6.216,2.573h172.216c2.253,0,4.5-0.858,6.213-2.573c1.715-1.713,2.586-3.96,2.586-6.216V203.354z"/>
<path style="fill:#F28124;" d="M246.902,244.073c0,0.842-0.694,1.531-1.539,1.531h-63.224c-0.847,0-1.539-0.689-1.539-1.531v-20.342
	c0-0.842,0.691-1.536,1.539-1.536h63.222c0.847,0,1.539,0.694,1.539,1.536v20.342H246.902z"/>
<path style="fill:#FF9D4D;" d="M213.752,222.195h-31.613c-0.847,0-1.539,0.694-1.539,1.536v20.342c0,0.842,0.691,1.531,1.539,1.531
	h31.611v-23.409H213.752z"/>
<g>
	<path style="fill:#F2F9FF;" d="M289.797,244.073c0,0.842-0.694,1.531-1.539,1.531h-20.324c-0.842,0-1.536-0.689-1.536-1.531
		v-20.342c0-0.842,0.694-1.536,1.536-1.536h20.324c0.842,0,1.539,0.694,1.539,1.536V244.073z"/>
	<path style="fill:#F2F9FF;" d="M332.695,244.073c0,0.842-0.691,1.531-1.533,1.531h-20.329c-0.842,0-1.539-0.689-1.539-1.531
		v-20.342c0-0.842,0.694-1.536,1.539-1.536h20.329c0.842,0,1.533,0.694,1.533,1.536V244.073z"/>
	<path style="fill:#F2F9FF;" d="M204.004,286.973c0,0.842-0.689,1.531-1.539,1.531h-20.324c-0.847,0-1.539-0.689-1.539-1.531
		v-20.339c0-0.842,0.691-1.531,1.539-1.531h20.324c0.85,0,1.539,0.689,1.539,1.531V286.973z"/>
	<path style="fill:#F2F9FF;" d="M246.902,286.973c0,0.842-0.694,1.531-1.539,1.531h-20.324c-0.842,0-1.539-0.689-1.539-1.531
		v-20.339c0-0.842,0.694-1.531,1.539-1.531h20.324c0.847,0,1.539,0.689,1.539,1.531V286.973z"/>
	<path style="fill:#F2F9FF;" d="M289.797,286.973c0,0.842-0.694,1.531-1.539,1.531h-20.324c-0.842,0-1.536-0.689-1.536-1.531
		v-20.339c0-0.842,0.694-1.531,1.536-1.531h20.324c0.842,0,1.539,0.689,1.539,1.531V286.973z"/>
	<path style="fill:#F2F9FF;" d="M332.695,286.973c0,0.842-0.691,1.531-1.533,1.531h-20.329c-0.842,0-1.539-0.689-1.539-1.531
		v-20.339c0-0.842,0.694-1.531,1.539-1.531h20.329c0.842,0,1.533,0.689,1.533,1.531V286.973z"/>
	<path style="fill:#F2F9FF;" d="M204.004,329.864c0,0.85-0.689,1.539-1.539,1.539h-20.324c-0.847,0-1.539-0.689-1.539-1.539v-20.332
		c0-0.842,0.691-1.531,1.539-1.531h20.324c0.85,0,1.539,0.689,1.539,1.531V329.864z"/>
	<path style="fill:#F2F9FF;" d="M246.902,329.864c0,0.85-0.694,1.539-1.539,1.539h-20.324c-0.842,0-1.539-0.689-1.539-1.539v-20.332
		c0-0.842,0.694-1.531,1.539-1.531h20.324c0.847,0,1.539,0.689,1.539,1.531V329.864z"/>
</g>
<path style="fill:#283A4D;" d="M289.797,329.864c0,0.85-0.694,1.539-1.539,1.539h-20.324c-0.842,0-1.536-0.689-1.536-1.539v-20.332
	c0-0.842,0.694-1.531,1.536-1.531h20.324c0.842,0,1.539,0.689,1.539,1.531V329.864z"/>
<g>
	<path style="fill:#F2F9FF;" d="M204.004,372.767c0,0.842-0.689,1.531-1.539,1.531h-20.324c-0.847,0-1.539-0.689-1.539-1.531
		v-20.332c0-0.842,0.691-1.531,1.539-1.531h20.324c0.85,0,1.539,0.689,1.539,1.531V372.767z"/>
	<path style="fill:#F2F9FF;" d="M246.902,372.767c0,0.842-0.694,1.531-1.539,1.531h-20.324c-0.842,0-1.539-0.689-1.539-1.531
		v-20.332c0-0.842,0.694-1.531,1.539-1.531h20.324c0.847,0,1.539,0.689,1.539,1.531V372.767z"/>
</g>
<g>
	<path style="fill:#283A4D;" d="M289.797,372.767c0,0.842-0.694,1.531-1.539,1.531h-20.324c-0.842,0-1.536-0.689-1.536-1.531
		v-20.332c0-0.842,0.694-1.531,1.536-1.531h20.324c0.842,0,1.539,0.689,1.539,1.531V372.767z"/>
	<path style="fill:#283A4D;" d="M332.695,372.767c0,0.842-0.691,1.531-1.533,1.531h-20.329c-0.842,0-1.539-0.689-1.539-1.531
		v-20.332c0-0.842,0.694-1.531,1.539-1.531h20.329c0.842,0,1.533,0.689,1.533,1.531V372.767z"/>
	<path style="fill:#283A4D;" d="M332.695,329.864c0,0.85-0.691,1.539-1.533,1.539h-20.329c-0.842,0-1.539-0.689-1.539-1.539v-20.332
		c0-0.842,0.694-1.531,1.539-1.531h20.329c0.842,0,1.533,0.689,1.533,1.531V329.864z"/>
</g>
<path style="fill:#03628A;" d="M350.907,127.652c0-2.25-0.87-4.5-2.586-6.218c-1.713-1.72-3.96-2.578-6.213-2.578H169.892
	c-2.25,0-4.503,0.858-6.216,2.578c-1.728,1.718-2.586,3.968-2.586,6.218v75.699h189.816V127.652z"/>
<path style="fill:#283A4D;" d="M182.139,190.725c-2.071,0-4.017-0.806-5.486-2.268c-1.457-1.454-2.268-3.407-2.268-5.486v-43.725
	c0-2.068,0.806-4.017,2.268-5.478c1.467-1.467,3.412-2.276,5.486-2.276h149.023c2.076,0,4.027,0.814,5.491,2.291
	c1.452,1.446,2.26,3.395,2.26,5.463v43.727c0,2.079-0.812,4.032-2.284,5.491c-1.441,1.454-3.392,2.263-5.468,2.263H182.139V190.725z
	"/>
<path style="fill:#CEE2F2;" d="M182.139,137.71c-0.392,0-0.786,0.151-1.088,0.453c-0.297,0.297-0.448,0.689-0.448,1.08v43.727
	c0,0.392,0.151,0.786,0.448,1.088c0.302,0.297,0.696,0.448,1.088,0.448h149.023c0.389,0,0.783-0.151,1.085-0.448
	c0.297-0.302,0.448-0.696,0.448-1.088v-43.725c0-0.394-0.151-0.783-0.448-1.08c-0.302-0.302-0.694-0.453-1.085-0.453H182.139V137.71
	z"/>
<path style="fill:#F2F9FF;" d="M182.139,137.71c-0.392,0-0.786,0.151-1.088,0.453c-0.297,0.297-0.448,0.689-0.448,1.08v43.727
	c0,0.392,0.151,0.786,0.448,1.088c0.302,0.297,0.696,0.448,1.088,0.448h74.509V137.71H182.139z"/>
<rect x="161.091" y="199.68" style="fill:#283A4D;" width="189.824" height="7.314"/>
<g>
</g>
<g>
</g>
<g>
</g>
<g>
</g>
<g>
</g>
<g>
</g>
<g>
</g>
<g>
</g>
<g>
</g>
<g>
</g>
<g>
</g>
<g>
</g>
<g>
</g>
<g>
</g>
<g>
</g>
</svg>
