<?xml version="1.0" encoding="iso-8859-1"?>
<!-- Generator: Adobe Illustrator 19.0.0, SVG Export Plug-In . SVG Version: 6.00 Build 0)  -->
<svg version="1.1" id="Layer_1" xmlns="http://www.w3.org/2000/svg" xmlns:xlink="http://www.w3.org/1999/xlink" x="0px" y="0px"
	 viewBox="0 0 512 512" style="enable-background:new 0 0 512 512;" xml:space="preserve">
<circle style="fill:#34495E;" cx="256" cy="256" r="256"/>
<path style="fill:#203549;" d="M511.529,270.961L385.503,144.932h-66.634l-19.709-19.717h-83.31l-24.65-24.648l0,0h-17.733V118.3
	l0,0l2.888,2.885v263.647h-2.888v17.741h-17.741v8.85l100.572,100.57C392.522,511.831,503.79,405.279,511.529,270.961z"/>
<rect x="176.351" y="118.298" style="fill:#F2F9FF;" width="11.965" height="266.522"/>
<g>
	<rect x="173.476" y="100.582" style="fill:#CEE2F2;" width="17.731" height="17.733"/>
	<rect x="173.476" y="384.819" style="fill:#CEE2F2;" width="17.731" height="17.748"/>
</g>
<rect x="155.732" y="402.56" style="fill:#B8D1E6;" width="53.207" height="8.863"/>
<polygon style="fill:#FF8E31;" points="385.518,243.914 274.668,243.914 274.668,144.914 385.518,144.914 350.825,194.401 "/>
<polygon style="fill:#ED7425;" points="302.664,144.914 274.668,144.914 274.668,243.914 320.166,243.914 "/>
<rect x="188.314" y="125.225" style="fill:#FF9D4D;" width="110.848" height="98.985"/>
<polygon style="fill:#F28124;" points="299.174,224.207 274.668,224.207 274.668,243.922 "/>
<g>
</g>
<g>
</g>
<g>
</g>
<g>
</g>
<g>
</g>
<g>
</g>
<g>
</g>
<g>
</g>
<g>
</g>
<g>
</g>
<g>
</g>
<g>
</g>
<g>
</g>
<g>
</g>
<g>
</g>
</svg>
