<?xml version="1.0" encoding="iso-8859-1"?>
<!-- Generator: Adobe Illustrator 19.0.0, SVG Export Plug-In . SVG Version: 6.00 Build 0)  -->
<svg version="1.1" id="Layer_1" xmlns="http://www.w3.org/2000/svg" xmlns:xlink="http://www.w3.org/1999/xlink" x="0px" y="0px"
	 viewBox="0 0 512 512" style="enable-background:new 0 0 512 512;" xml:space="preserve">
<circle style="fill:#273B7A;" cx="256" cy="256" r="256"/>
<path style="fill:#121149;" d="M160.827,409.59l102.479,102.3c135.394-3.796,244.483-112.712,248.563-248.036L353.904,105.889
	L256,114.223l-94.751,12.3l89.005,89.005v30.573l-50.102-9.547l50.102,50.102l0.431,29.518L160.827,409.59z"/>
<path style="fill:#71E2EF;" d="M335.3,178.438v-54.605H176.7v54.605c0,36.028,22.531,66.6,53.827,77.562
	c-31.294,10.962-53.826,41.534-53.827,77.562v54.605H335.3v-54.605c0-36.028-22.531-66.6-53.827-77.562
	C312.768,245.038,335.3,214.466,335.3,178.438z"/>
<path style="fill:#38C6D9;" d="M335.3,178.438v-54.605h-78.724v264.332H335.3v-54.603c0-36.028-22.531-66.6-53.827-77.562
	C312.768,245.038,335.3,214.466,335.3,178.438z"/>
<polygon style="fill:#FFEDB5;" points="195.524,388.167 316.476,388.167 265.844,320.195 265.844,256.705 308.065,214.483 
	211.144,214.483 248.391,256.705 248.391,320.195 "/>
<polygon style="fill:#FEE187;" points="265.844,320.195 265.844,256.705 308.065,214.483 256.576,214.483 256.576,388.167 
	316.476,388.167 "/>
<path style="fill:#D35933;" d="M339.304,131.043H172.696c-9.29,0-16.822-7.532-16.822-16.822l0,0c0-9.29,7.532-16.822,16.822-16.822
	h166.609c9.29,0,16.822,7.532,16.822,16.822l0,0C356.126,123.513,348.594,131.043,339.304,131.043z"/>
<path style="fill:#B54324;" d="M339.304,97.401h-82.73v33.642h82.73c9.29,0,16.822-7.532,16.822-16.822
	S348.594,97.401,339.304,97.401z"/>
<path style="fill:#D35933;" d="M339.304,414.599H172.696c-9.29,0-16.822-7.532-16.822-16.822l0,0c0-9.29,7.532-16.822,16.822-16.822
	h166.609c9.29,0,16.822,7.532,16.822,16.822l0,0C356.126,407.068,348.594,414.599,339.304,414.599z"/>
<path style="fill:#B54324;" d="M339.304,380.957h-82.73v33.642h82.73c9.29,0,16.822-7.532,16.822-16.822l0,0
	C356.126,388.489,348.594,380.957,339.304,380.957z"/>
<g>
</g>
<g>
</g>
<g>
</g>
<g>
</g>
<g>
</g>
<g>
</g>
<g>
</g>
<g>
</g>
<g>
</g>
<g>
</g>
<g>
</g>
<g>
</g>
<g>
</g>
<g>
</g>
<g>
</g>
</svg>
