<?xml version="1.0" encoding="iso-8859-1"?>
<!-- Generator: Adobe Illustrator 19.0.0, SVG Export Plug-In . SVG Version: 6.00 Build 0)  -->
<svg version="1.1" id="Layer_1" xmlns="http://www.w3.org/2000/svg" xmlns:xlink="http://www.w3.org/1999/xlink" x="0px" y="0px"
	 viewBox="0 0 512 512" style="enable-background:new 0 0 512 512;" xml:space="preserve">
<circle style="fill:#0575A5;" cx="256" cy="256" r="256"/>
<path style="fill:#025E90;" d="M510.4,284.329L380.337,154.26l-0.218-0.218H131.656v203.116l0.765,0.768l152.41,152.415
	C403.336,497.055,497.341,402.903,510.4,284.329z"/>
<rect x="131.661" y="213.811" style="fill:#A6B83D;" width="248.678" height="144.128"/>
<rect x="131.661" y="207.153" style="fill:#C1D354;" width="248.678" height="144.154"/>
<rect x="131.661" y="200.525" style="fill:#A6B83D;" width="248.678" height="144.154"/>
<rect x="131.661" y="193.894" style="fill:#C1D354;" width="248.678" height="144.154"/>
<rect x="131.661" y="187.238" style="fill:#A6B83D;" width="248.678" height="144.179"/>
<rect x="131.661" y="180.608" style="fill:#C1D354;" width="248.678" height="144.154"/>
<rect x="131.661" y="173.975" style="fill:#A6B83D;" width="248.678" height="144.128"/>
<rect x="131.661" y="167.322" style="fill:#C1D354;" width="248.678" height="144.179"/>
<rect x="131.661" y="160.691" style="fill:#A6B83D;" width="248.678" height="144.179"/>
<polygon style="fill:#C1D354;" points="380.337,154.058 380.337,298.194 176.817,298.194 131.656,253.056 131.656,154.058 "/>
<g>
	<path style="fill:#A6B83D;" d="M255.992,180.618c-21.54,0-39.007,20.36-39.007,45.509c0,25.137,17.467,45.519,39.007,45.519
		c21.555,0,39.025-20.383,39.025-45.519C295.017,200.978,277.548,180.618,255.992,180.618z M258.493,248.863v5.829h-4.017v-5.829
		c-6.643-0.422-11.707-3.195-14.994-6.912l3.287-4.242c2.493,2.97,6.51,5.604,11.707,6.205v-16.003
		c-6.694-1.843-13.624-4.091-13.624-12.186c0-6.799,5.737-11.599,13.624-12.17v-5.983h4.017v6.047
		c5.463,0.448,9.818,2.711,13.038,6.047l-3.279,4.017c-2.652-2.893-6.065-4.536-9.759-5.084v14.377
		c6.802,1.892,14.024,4.429,14.024,13.007C272.517,241.951,268.698,248.108,258.493,248.863z"/>
	<path style="fill:#A6B83D;" d="M258.493,228.954v15.05c6.252-0.689,8.371-4.419,8.371-7.593
		C266.865,232.105,263.107,230.349,258.493,228.954z"/>
	<path style="fill:#A6B83D;" d="M246.505,215.391c0,3.615,3.489,5.22,7.972,6.52v-13.422
		C249.81,208.809,246.505,211.584,246.505,215.391z"/>
	<path style="fill:#A6B83D;" d="M338.501,161.539H173.489h-34.35v34.35v64.607l7.447,7.485v-71.342
		c6.589-0.463,13.289-3.676,18.647-9.011c5.32-5.312,8.512-12.157,8.991-18.668h163.558c0.481,6.51,3.671,13.356,8.988,18.668
		c5.358,5.335,12.058,8.548,18.642,9.011v59.005c-6.584,0.443-13.284,3.656-18.642,9.001c-5.317,5.309-8.504,12.142-8.988,18.647
		H161.897l7.473,7.442h169.129h34.358v-34.358v-60.488v-34.35H338.501z"/>
</g>
<polygon style="fill:#D0E070;" points="176.817,253.056 176.817,298.194 131.656,253.056 "/>
<g>
</g>
<g>
</g>
<g>
</g>
<g>
</g>
<g>
</g>
<g>
</g>
<g>
</g>
<g>
</g>
<g>
</g>
<g>
</g>
<g>
</g>
<g>
</g>
<g>
</g>
<g>
</g>
<g>
</g>
</svg>
