<?xml version="1.0" encoding="iso-8859-1"?>
<!-- Generator: Adobe Illustrator 19.0.0, SVG Export Plug-In . SVG Version: 6.00 Build 0)  -->
<svg version="1.1" id="Layer_1" xmlns="http://www.w3.org/2000/svg" xmlns:xlink="http://www.w3.org/1999/xlink" x="0px" y="0px"
	 viewBox="0 0 512 512" style="enable-background:new 0 0 512 512;" xml:space="preserve">
<circle style="fill:#273B7A;" cx="256" cy="256" r="256"/>
<path style="fill:#121149;" d="M154.721,355.837L305.99,507.106c101.283-20.051,181.067-99.837,201.118-201.119L357.136,156.015
	L154.721,355.837z"/>
<circle style="fill:#FFC61B;" cx="256" cy="256" r="142.222"/>
<path style="fill:#EAA22F;" d="M398.222,256c0-78.546-63.674-142.222-142.222-142.222v284.444
	C334.548,398.222,398.222,334.546,398.222,256z"/>
<circle style="fill:#FFEDB5;" cx="199.111" cy="227.556" r="28.444"/>
<circle style="fill:#272525;" cx="199.111" cy="227.556" r="14.222"/>
<circle style="fill:#FFEDB5;" cx="312.889" cy="227.556" r="28.444"/>
<circle style="fill:#272525;" cx="312.889" cy="227.556" r="14.222"/>
<path style="fill:#C92F00;" d="M318.919,335.46c-2.953,0-5.685-1.91-6.592-4.882c-7.058-23.104-30.222-39.238-56.329-39.238
	c-26.105,0-49.268,16.134-56.329,39.238c-1.114,3.641-4.967,5.691-8.609,4.579c-3.643-1.114-5.692-4.968-4.579-8.609
	c8.818-28.85,37.405-48.999,69.517-48.999c32.116,0,60.702,20.149,69.516,48.999c1.114,3.641-0.938,7.497-4.579,8.609
	C320.265,335.362,319.586,335.46,318.919,335.46z"/>
<path style="fill:#930000;" d="M325.516,326.547c-8.816-28.85-37.402-48.999-69.518-48.999c-0.191,0-0.381,0.01-0.572,0.01v13.802
	c0.191-0.002,0.381-0.022,0.572-0.022c26.107,0,49.269,16.134,56.329,39.238c0.907,2.972,3.639,4.882,6.592,4.882
	c0.667,0,1.345-0.098,2.017-0.303C324.579,334.043,326.628,330.188,325.516,326.547z"/>
<g>
</g>
<g>
</g>
<g>
</g>
<g>
</g>
<g>
</g>
<g>
</g>
<g>
</g>
<g>
</g>
<g>
</g>
<g>
</g>
<g>
</g>
<g>
</g>
<g>
</g>
<g>
</g>
<g>
</g>
</svg>
