<?xml version="1.0" encoding="iso-8859-1"?>
<!-- Generator: Adobe Illustrator 19.0.0, SVG Export Plug-In . SVG Version: 6.00 Build 0)  -->
<svg version="1.1" id="Layer_1" xmlns="http://www.w3.org/2000/svg" xmlns:xlink="http://www.w3.org/1999/xlink" x="0px" y="0px"
	 viewBox="0 0 512 512" style="enable-background:new 0 0 512 512;" xml:space="preserve">
<circle style="fill:#E9EFF4;" cx="256" cy="256" r="256"/>
<path style="fill:#CFDBE6;" d="M117.127,365.583l146.301,146.301c133.603-3.808,241.573-109.971,248.242-242.84L399.084,156.46
	l-28.891,20.278l-53.426-53.426l-101.854,10.864l-19.682,3.867l19.682,19.682l58.492,86.949l-69.554,48.821L117.127,365.583z"/>
<rect x="206.972" y="132.068" style="fill:#2B3B4E;" width="14.731" height="30.384"/>
<rect x="290.306" y="132.068" style="fill:#111E2B;" width="14.731" height="30.384"/>
<path style="fill:#2B3B4E;" d="M381.602,369.147H130.4c-9.656,0-17.482-7.827-17.482-17.482V204.326
	c0-9.656,7.827-17.482,17.482-17.482h251.204c9.656,0,17.482,7.827,17.482,17.482v147.339
	C399.084,361.319,391.258,369.147,381.602,369.147z"/>
<path style="fill:#111E2B;" d="M381.602,186.844H255.426v182.303h126.176c9.656,0,17.482-7.827,17.482-17.482V204.326
	C399.084,194.67,391.258,186.844,381.602,186.844z"/>
<path style="fill:#FC6F58;" d="M219.541,338.868c0-20.137,16.324-36.461,36.461-36.461s36.461,16.324,36.461,36.461
	c0,11.755-5.587,22.181-14.224,28.85h44.715c1.479-3.415,2.729-6.954,3.672-10.619h20.528v-36.461h-20.528
	c-1.722-6.69-4.382-12.998-7.811-18.801l14.531-14.531l-25.781-25.781l-14.531,14.531c-5.803-3.427-12.112-6.089-18.801-7.811
	v-20.528h-36.461v20.528c-6.69,1.722-13,4.382-18.801,7.811l-14.531-14.531l-25.781,25.781l14.531,14.531
	c-3.429,5.803-6.089,12.112-7.811,18.801h-20.53v36.461h20.528c0.943,3.665,2.193,7.202,3.672,10.619h44.715
	C225.127,361.05,219.541,350.623,219.541,338.868z"/>
<path style="fill:#F1543F;" d="M326.625,320.638c-1.722-6.69-4.382-13-7.811-18.801l14.531-14.531l-25.781-25.783l-14.531,14.531
	c-5.803-3.429-12.112-6.089-18.801-7.811v-20.528h-18.806v54.72c0.193-0.003,0.381-0.029,0.574-0.029
	c20.137,0,36.461,16.324,36.461,36.461c0,11.755-5.587,22.181-14.224,28.85h44.715c1.479-3.415,2.729-6.954,3.672-10.619h20.528
	v-36.461h-20.527V320.638z"/>
<path style="fill:#F9B54C;" d="M205.178,338.868c0-28.024,22.8-50.824,50.824-50.824s50.824,22.8,50.824,50.824
	c0,10.709-3.337,20.647-9.014,28.85h9.118c4.846-8.521,7.63-18.363,7.63-28.85c0-32.289-26.269-58.558-58.558-58.558
	s-58.558,26.269-58.558,58.558c0,10.485,2.784,20.327,7.63,28.85h9.118C208.515,359.515,205.178,349.577,205.178,338.868z"/>
<path style="fill:#F4A200;" d="M256,280.311c-0.193,0-0.383,0.012-0.574,0.014v7.733c0.193-0.002,0.383-0.014,0.574-0.014
	c28.024,0,50.824,22.8,50.824,50.824c0,10.709-3.337,20.647-9.014,28.85h9.118c4.846-8.523,7.63-18.365,7.63-28.85
	C314.559,306.579,288.29,280.311,256,280.311z"/>
<path style="fill:#324A5E;" d="M129.982,371.448h252.037c9.425,0,17.067-7.64,17.067-17.067V336.46H112.918v17.922
	C112.916,363.806,120.558,371.448,129.982,371.448z"/>
<path style="fill:#2B3B4E;" d="M255.426,336.46v34.987h126.593c9.425,0,17.067-7.64,17.067-17.067v-17.922h-143.66V336.46z"/>
<path style="fill:#324A5E;" d="M129.982,234.72h252.037c9.425,0,17.067-7.64,17.067-17.067V156.46H112.918v61.195
	C112.916,227.08,120.558,234.72,129.982,234.72z"/>
<g>
	<path style="fill:#2B3B4E;" d="M255.426,156.46v78.262h126.593c9.425,0,17.067-7.64,17.067-17.067V156.46H255.426z"/>
	<rect x="195.232" y="123.311" style="fill:#2B3B4E;" width="121.535" height="14.731"/>
</g>
<rect x="255.431" y="123.311" style="fill:#111E2B;" width="61.342" height="14.731"/>
<g>
</g>
<g>
</g>
<g>
</g>
<g>
</g>
<g>
</g>
<g>
</g>
<g>
</g>
<g>
</g>
<g>
</g>
<g>
</g>
<g>
</g>
<g>
</g>
<g>
</g>
<g>
</g>
<g>
</g>
</svg>
